# AST/ASF file generated using VICON BodyLanguage
# -----------------------------------------------
:version 1.10
:name VICON
:units
  mass 1.0
  length 0.45
  angle deg
:documentation
   .ast/.asf automatically generated from VICON data using
   VICON BodyBuilder and BodyLanguage model FoxedUp or BRILLIANT.MOD
:root
   order TX TY TZ RX RY RZ
   axis XYZ
   position 0 0 0  
   orientation 0 0 0 
:bonedata
  begin
     id 1 
     name lhipjoint
     direction 0.78388 -0.462562 0.414208 
     length 3.01181 
     axis 0 0 0  XYZ
  end
  begin
     id 2 
     name lfemur
     direction 0.34202 -0.939693 0  
     length 6.04673  
     axis 0 0 20  XYZ
    dof rx ry rz
    limits (-160.0 20.0)
           (-70.0 70.0)
           (-60.0 70.0)
  end
  begin
     id 3 
     name ltibia
     direction 0.34202 -0.939693 0   
     length 7.211   
     axis 0 0 20   XYZ
    dof rx
    limits (-10.0 170.0)
  end
  begin
     id 4 
     name lfoot
     direction 0.121887 -0.334882 0.934344   
     length 2.13567   
     axis -90 7.62852e-016 20   XYZ
    dof rx rz
    limits (-45.0 90.0)
           (-70.0 20.0)
  end
  begin
     id 5 
     name ltoes
     direction 1.53555e-011 -4.2179e-011 1   
     length 1.05957   
     axis -90 7.62852e-016 20   XYZ
    dof rx
    limits (-90.0 20.0)
  end
  begin
     id 6 
     name rhipjoint
     direction -0.769387 -0.475875 0.426129   
     length 2.92756  
     axis 0 0 0  XYZ 
  end
  begin
     id 7 
     name rfemur
     direction -0.34202 -0.939693 0   
     length 6.35468   
     axis 0 0 -20   XYZ
    dof rx ry rz
    limits (-160.0 20.0)
           (-70.0 70.0)
           (-70.0 60.0)
  end
  begin
     id 8 
     name rtibia
     direction -0.34202 -0.939693 0   
     length 7.37886   
     axis 0 0 -20   XYZ
    dof rx
    limits (-10.0 170.0)
 end
 begin
     id 9 
     name rfoot
     direction -0.101763 -0.279592 0.954711   
     length 2.21478  
     axis -90 -7.62852e-016 -20   XYZ
    dof rx rz
    limits (-45.0 90.0)
           (-20.0 70.0)
  end
  begin
     id 10 
     name rtoes
     direction -1.53494e-011 -4.21851e-011 1   
     length 1.10506   
     axis -90 -7.62852e-016 -20   XYZ
    dof rx
    limits (-90.0 20.0)
  end
  begin
     id 11 
     name lowerback
     direction 0.00747405 0.999267 0.0375481   
     length 2.13259   
     axis 0 0 0   XYZ
    dof rx ry rz
    limits (-20.0 45.0)
           (-30.0 30.0)
           (-30.0 30.0)
  end
  begin
     id 12 
     name upperback
     direction 0.00661626 0.996177 0.0871029   
     length 2.10528   
     axis 0 0 0   XYZ
    dof rx ry rz
    limits (-20.0 45.0)
           (-30.0 30.0)
           (-30.0 30.0)
  end
  begin
     id 13 
     name thorax
     direction 0.00320659 0.997679 0.0680167   
     length 2.11338   
     axis 0 0 0   XYZ
    dof rx ry rz
    limits (-20.0 45.0)
           (-30.0 30.0)
           (-30.0 30.0)
  end
  begin
     id 14 
     name lowerneck
     direction 0.0374841 0.973033 0.227602   
     length 1.42765   
     axis 0 0 0   XYZ
    dof rx ry rz
    limits (-20.0 45.0)
           (-30.0 30.0)
           (-30.0 30.0)
  end
  begin
     id 15 
     name upperneck
     direction 0.00481585 0.989155 -0.146795   
     length 1.47593   
     axis 0 0 0   XYZ
    dof rx ry rz
    limits (-20.0 45.0)
           (-30.0 30.0)
           (-30.0 30.0)
  end
  begin
     id 16
     name head
     direction -0.00292522 0.997206 -0.0746423  
     length 1.48116  
     axis 0 0 0   XYZ
    dof rx ry rz
    limits (-20.0 45.0)
           (-30.0 30.0)
           (-30.0 30.0)
  end
  begin
     id 17 
     name lclavicle
     direction 0.951444 0.305606 0.0368784  
     length 3.01855  
     axis 0 0 0   XYZ
    dof ry rz
    limits (-20.0 10.0)
           (0.0 20.0)
  end
  begin
     id 18 
     name lhumerus
     direction 1 -4.48977e-011 2.61664e-027   
     length 5.52731   
     axis 180 -30 -90   XYZ
    dof rx ry rz
    limits (-60.0 90.0)
           (-90.0 90.0)
           (-90.0 90.0)
  end
  begin
     id 19
     name lradius
     direction 1 -4.48944e-011 8.22157e-027   
     length 3.11059   
     axis 180 -30 -90   XYZ
    dof rx
    limits (-10.0 170.0)
  end
  begin
     id 20
     name lwrist
     direction 1 -4.48976e-011 1.5779e-026   
     length 1.5553   
     axis -1.15221e-014 90 90   XYZ
    dof ry
    limits (-180.0 0.0)
 end
  begin
     id 21 
     name lhand
     direction 1 -4.49025e-011 3.1558e-026   
     length 0.419626   
     axis -2.01367e-014 90 90   XYZ
    dof rx rz
    limits (-90.0 90.0)
           (-45.0 45.0)
  end
  begin
     id 22 
     name lfingers
     direction 1 -4.4904e-011 6.31161e-026   
     length 0.338313   
     axis -4.02734e-014 90 90   XYZ
    dof rx
    limits (0.0 90.0)
  end
  begin
     id 23
     name lthumb
     direction 0.707107 -6.35004e-011 0.707107   
     length 0.485752   
     axis -90 45 2.85299e-015   XYZ
    dof rx rz
    limits (-45.0 45.0)
           (-45.0 45.0)
  end
  begin
     id 24 
     name rclavicle
     direction -0.968876 0.223791 0.105816   
     length 3.04177  
     axis 0 0 0   XYZ 
    dof ry rz
    limits (-10.0 20.0)
           (-20.0 0.0)
  end
  begin
     id 25 
     name rhumerus
     direction -1 -4.48962e-011 -1.01384e-027  
     length 5.25396   
     axis 180 30 90   XYZ
    dof rx ry rz
    limits (-90.0 60.0)
           (-90.0 90.0)
           (-90.0 90.0)
  end
  begin
     id 26 
     name rradius
     direction -1 -4.48955e-011 8.88542e-027   
     length 3.10567   
     axis 180 30 90   XYZ
    dof rx
    limits (-10.0 170.0)
  end
  begin
     id 27 
     name rwrist
     direction -1 -4.48994e-011 1.5779e-026   
     length 1.55283   
     axis -1.15221e-014 -90 -90   XYZ
    dof ry
    limits (-180.0 0.0)
  end
  begin
     id 28
     name rhand
     direction -1 -4.48891e-011 3.1558e-026   
     length 0.498676   
     axis -2.01367e-014 -90 -90   XYZ
    dof rx rz
    limits (-90.0 90.0)
           (-45.0 45.0)
  end
  begin
     id 29
     name rfingers
     direction -1 -4.48972e-011 6.31161e-026   
     length 0.402045   
     axis -4.02734e-014 -90 -90   XYZ
    dof rx
    limits (0.0 90.0)
  end
  begin
     id 30
     name rthumb
     direction -0.707107 -6.34849e-011 0.707107   
     length 0.577259   
     axis -90 -45 -2.85299e-015   XYZ
    dof rx rz
    limits (-45.0 45.0)
           (-45.0 45.0)
  end
:hierarchy
  begin
    root lhipjoint rhipjoint lowerback
    lhipjoint lfemur
    lfemur ltibia
    ltibia lfoot
    lfoot ltoes
    rhipjoint rfemur
    rfemur rtibia
    rtibia rfoot
    rfoot rtoes
    lowerback upperback
    upperback thorax
    thorax lowerneck lclavicle rclavicle
    lowerneck upperneck
    upperneck head
    lclavicle lhumerus
    lhumerus lradius
    lradius lwrist
    lwrist lhand lthumb
    lhand lfingers
    rclavicle rhumerus
    rhumerus rradius
    rradius rwrist
    rwrist rhand rthumb
    rhand rfingers
  end

#!OML:ASF H:\Pregnant\Project 1\Capture day 1\Session 1\femalepreg.ASF
:FULLY-SPECIFIED
:DEGREES
259
root 11.0422 15.6316 4.37026 25.0145 -1.05607 1.47639
lowerback -11.432 0.474768 -8.73652
upperback -7.59458 1.42118 -1.01272
thorax -1.80193 1.02211 3.97659
lowerneck -26.6587 -3.75175 -2.96944
upperneck 13.6524 -4.55778 2.82228
head 8.70095 -1.97691 0.772768
rclavicle 2.57923e-014 -1.90833e-014
rhumerus -11.5272 16.2878 -76.4042
rradius 92.5304
rwrist -11.5037
rhand -21.2963 -20.5418
rfingers 7.12502
rthumb 5.08824 -50.4607
lclavicle 2.57923e-014 -1.90833e-014
lhumerus -36.1371 -18.2335 83.4504
lradius 33.0374
lwrist 48.1236
lhand -32.9151 7.88243
lfingers 7.12502
lthumb -6.13229 37.7737
rfemur -61.9841 19.8974 -1.31022
rtibia 46.085
rfoot -13.708 -16.2902
rtoes -7.61386
lfemur -36.2004 -13.6681 -21.3805
ltibia 23.5723
lfoot -13.3296 -8.13926
ltoes -25.0201
260
root 11.0296 15.6369 4.45029 24.9264 -0.78742 1.51267
lowerback -11.5512 0.32359 -8.82379
upperback -7.49719 1.24694 -0.927001
thorax -1.61625 0.929203 4.10432
lowerneck -26.4689 -3.69839 -2.97996
upperneck 13.5767 -4.48618 2.82421
head 8.64254 -1.94642 0.788424
rclavicle -9.0447e-015 1.03368e-014
rhumerus -12.833 17.5535 -76.8187
rradius 90.266
rwrist -13.1661
rhand -20.094 -21.4438
rfingers 7.12502
rthumb 6.24907 -51.3316
lclavicle -9.0447e-015 1.03368e-014
lhumerus -36.2537 -18.2569 83.4138
lradius 32.7969
lwrist 48.2246
lhand -32.8151 7.87899
lfingers 7.12502
lthumb -6.0357 37.773
rfemur -62.4324 20.4471 -1.97857
rtibia 44.66
rfoot -13.4096 -16.1731
rtoes -8.60893
lfemur -35.5363 -13.7902 -21.406
ltibia 23.1332
lfoot -13.4436 -8.29811
ltoes -24.7663
261
root 11.0165 15.6406 4.53068 24.8131 -0.514348 1.56967
lowerback -11.6837 0.171395 -8.91292
upperback -7.38212 1.07416 -0.852859
thorax -1.40349 0.834777 4.2206
lowerneck -26.2771 -3.65274 -3.00007
upperneck 13.5075 -4.42412 2.83715
head 8.58686 -1.91959 0.807824
rclavicle 2.33075e-014 -1.55052e-014
rhumerus -14.0601 18.804 -77.2679
rradius 87.929
rwrist -14.7515
rhand -19.064 -22.2625
rfingers 7.12502
rthumb 7.24333 -52.1185
lclavicle 2.33075e-014 -1.55052e-014
lhumerus -36.3438 -18.3127 83.3826
lradius 32.558
lwrist 48.3407
lhand -32.6977 7.88452
lfingers 7.12502
lthumb -5.92231 37.7818
rfemur -62.8087 20.896 -2.53886
rtibia 43.3858
rfoot -13.2578 -15.9183
rtoes -9.90961
lfemur -34.8365 -13.9224 -21.456
ltibia 22.6834
lfoot -13.5535 -8.46084
ltoes -24.5052
262
root 11.0031 15.643 4.61231 24.661 -0.242925 1.64581
lowerback -11.8128 0.0266576 -8.99923
upperback -7.26334 0.911161 -0.798181
thorax -1.18864 0.744162 4.31465
lowerneck -26.0151 -3.61805 -3.01775
upperneck 13.4224 -4.37956 2.84977
head 8.51489 -1.90171 0.824873
rclavicle 1.19271e-014 -2.5842e-014
rhumerus -15.2598 20.0392 -77.7759
rradius 85.5231
rwrist -16.1337
rhand -18.2449 -22.9547
rfingers 7.12502
rthumb 8.03399 -52.782
lclavicle 1.19271e-014 -2.5842e-014
lhumerus -36.437 -18.4235 83.3638
lradius 32.3071
lwrist 48.4463
lhand -32.535 7.81591
lfingers 7.12502
lthumb -5.76528 37.7175
rfemur -63.0796 21.2349 -2.95488
rtibia 42.2763
rfoot -13.2646 -15.4686
rtoes -11.311
lfemur -34.0789 -14.071 -21.534
ltibia 22.219
lfoot -13.6578 -8.60981
ltoes -24.2416
263
root 10.9892 15.6444 4.69496 24.4683 0.0196654 1.74006
lowerback -11.9409 -0.106124 -9.08495
upperback -7.13173 0.764975 -0.763359
thorax -0.96194 0.660289 4.38825
lowerneck -25.7332 -3.59478 -3.0431
upperneck 13.3487 -4.35152 2.8759
head 8.44473 -1.8906 0.845401
rclavicle 3.77691e-015 -2.14687e-014
rhumerus -16.4118 21.2681 -78.3335
rradius 83.0467
rwrist -17.2628
rhand -17.7296 -23.578
rfingers 7.12502
rthumb 8.53132 -53.3857
lclavicle 3.77691e-015 -2.14687e-014
lhumerus -36.5175 -18.6001 83.3575
lradius 32.0475
lwrist 48.5403
lhand -32.3412 7.72803
lfingers 7.12502
lthumb -5.57813 37.6346
rfemur -63.2366 21.4711 -3.21438
rtibia 41.3373
rfoot -13.4115 -14.8098
rtoes -12.5975
lfemur -33.26 -14.2275 -21.6425
ltibia 21.7367
lfoot -13.7559 -8.74272
ltoes -24.008
264
root 10.9747 15.6443 4.77843 24.2453 0.282241 1.85644
lowerback -12.0682 -0.232699 -9.17344
upperback -6.98788 0.628393 -0.742487
thorax -0.72335 0.579813 4.44886
lowerneck -25.4727 -3.57933 -3.07877
upperneck 13.3001 -4.33141 2.90614
head 8.38717 -1.88292 0.867384
rclavicle 2.65378e-014 -2.8625e-014
rhumerus -17.5151 22.5098 -78.9363
rradius 80.5078
rwrist -18.1412
rhand -17.5348 -24.1922
rfingers 7.12502
rthumb 8.71929 -53.9921
lclavicle 2.65378e-014 -2.8625e-014
lhumerus -36.569 -18.8285 83.3679
lradius 31.7652
lwrist 48.6201
lhand -32.1149 7.59026
lfingers 7.12502
lthumb -5.35964 37.5025
rfemur -63.2747 21.5964 -3.31588
rtibia 40.5667
rfoot -13.6537 -13.956
rtoes -13.6388
lfemur -32.3957 -14.3915 -21.7835
ltibia 21.2411
lfoot -13.8498 -8.86838
ltoes -23.8045
265
root 10.959 15.6424 4.86235 24.0016 0.551536 1.99743
lowerback -12.1928 -0.354377 -9.26909
upperback -6.84001 0.499606 -0.737282
thorax -0.482618 0.502639 4.49684
lowerneck -25.2354 -3.56959 -3.12209
upperneck 13.2842 -4.31779 2.94173
head 8.34502 -1.87766 0.89101
rclavicle 2.83268e-015 1.74931e-014
rhumerus -18.5845 23.7544 -79.5939
rradius 77.9168
rwrist -18.8255
rhand -17.6388 -24.8858
rfingers 7.12502
rthumb 8.61895 -54.6899
lclavicle 2.83268e-015 1.74931e-014
lhumerus -36.6038 -19.118 83.3977
lradius 31.4724
lwrist 48.6828
lhand -31.881 7.46395
lfingers 7.12502
lthumb -5.13385 37.3818
rfemur -63.1976 21.6307 -3.28116
rtibia 39.955
rfoot -13.9305 -12.9914
rtoes -14.4611
lfemur -31.5057 -14.5533 -21.9583
ltibia 20.7434
lfoot -13.9472 -9.00197
ltoes -23.6443
266
root 10.9418 15.6383 4.94606 23.7552 0.842348 2.16713
lowerback -12.3147 -0.47536 -9.37398
upperback -6.70006 0.372772 -0.74915
thorax -0.25176 0.426843 4.53117
lowerneck -25.0016 -3.57052 -3.17941
upperneck 13.2996 -4.31648 2.9857
head 8.31503 -1.87782 0.917729
rclavicle -1.48343e-014 1.59028e-014
rhumerus -19.632 24.9709 -80.3083
rradius 75.2897
rwrist -19.3928
rhand -17.9001 -25.6975
rfingers 7.12502
rthumb 8.36672 -55.5118
lclavicle -1.48343e-014 1.59028e-014
lhumerus -36.6246 -19.4669 83.4445
lradius 31.171
lwrist 48.7266
lhand -31.6361 7.40536
lfingers 7.12502
lthumb -4.89732 37.3288
rfemur -63.0159 21.5819 -3.13787
rtibia 39.4883
rfoot -14.1714 -12.0246
rtoes -15.157
lfemur -30.6232 -14.7054 -22.1644
ltibia 20.2612
lfoot -14.0562 -9.16462
ltoes -23.5229
267
root 10.9229 15.6316 5.02975 23.513 1.16044 2.36173
lowerback -12.442 -0.592939 -9.48147
upperback -6.56997 0.251809 -0.78269
thorax -0.0288709 0.354172 4.54382
lowerneck -24.7667 -3.58282 -3.24511
upperneck 13.342 -4.33041 3.03775
head 8.29486 -1.88463 0.946234
rclavicle -4.96962e-016 -2.38542e-015
rhumerus -20.6622 26.1035 -81.0827
rradius 72.6269
rwrist -19.8688
rhand -18.2255 -26.4678
rfingers 7.12502
rthumb 8.05266 -56.2944
lclavicle -4.96962e-016 -2.38542e-015
lhumerus -36.6324 -19.893 83.5055
lradius 30.8636
lwrist 48.7484
lhand -31.393 7.40597
lfingers 7.12502
lthumb -4.66264 37.3347
rfemur -62.7292 21.4622 -2.89817
rtibia 39.1507
rfoot -14.3051 -11.1603
rtoes -15.919
lfemur -29.7626 -14.8464 -22.3935
ltibia 19.8055
lfoot -14.1938 -9.36242
ltoes -23.4513
268
root 10.9021 15.6224 5.11355 23.2795 1.50797 2.57428
lowerback -12.5786 -0.706272 -9.58668
upperback -6.45218 0.137717 -0.835746
thorax 0.185395 0.285239 4.5345
lowerneck -24.5081 -3.61201 -3.32428
upperneck 13.4026 -4.36533 3.09466
head 8.2781 -1.90176 0.975738
rclavicle 6.78353e-015 -2.62396e-014
rhumerus -21.6874 27.092 -81.9121
rradius 69.9428
rwrist -20.2341
rhand -18.4246 -27.082
rfingers 7.12502
rthumb 7.86053 -56.9159
lclavicle 6.78353e-015 -2.62396e-014
lhumerus -36.6304 -20.3877 83.5749
lradius 30.5528
lwrist 48.7257
lhand -31.1146 7.46775
lfingers 7.12502
lthumb -4.39381 37.4022
rfemur -62.3437 21.2959 -2.58447
rtibia 38.9275
rfoot -14.2428 -10.4539
rtoes -16.9344
lfemur -28.9303 -14.9701 -22.636
ltibia 19.3817
lfoot -14.3603 -9.60294
ltoes -23.3991
269
root 10.8793 15.6114 5.19748 23.0548 1.89329 2.80335
lowerback -12.7346 -0.818331 -9.68825
upperback -6.33506 0.0283635 -0.904866
thorax 0.409032 0.217861 4.50597
lowerneck -24.2549 -3.65662 -3.41699
upperneck 13.4898 -4.4182 3.15425
head 8.27217 -1.92766 1.00564
rclavicle 3.03147e-015 3.97569e-016
rhumerus -22.6801 27.8872 -82.7679
rradius 67.229
rwrist -20.406
rhand -18.3746 -27.3917
rfingers 7.12502
rthumb 7.90882 -57.2237
lclavicle 3.03147e-015 3.97569e-016
lhumerus -36.5997 -20.9412 83.6441
lradius 30.2384
lwrist 48.6456
lhand -30.7945 7.54692
lfingers 7.12502
lthumb -4.08473 37.4875
rfemur -61.8652 21.1051 -2.2303
rtibia 38.8092
rfoot -13.897 -9.88366
rtoes -18.1355
lfemur -28.1206 -15.0771 -22.8865
ltibia 18.9787
lfoot -14.5507 -9.89755
ltoes -23.3407
270
root 10.8552 15.5996 5.2826 22.8297 2.3011 3.04197
lowerback -12.9249 -0.916089 -9.76878
upperback -6.19083 -0.0571536 -1.00092
thorax 0.677156 0.158555 4.43959
lowerneck -24.0687 -3.72909 -3.51356
upperneck 13.6065 -4.50527 3.20743
head 8.28823 -1.96974 1.02832
rclavicle -1.39149e-014 2.94201e-014
rhumerus -23.593 28.4163 -83.6187
rradius 64.4743
rwrist -20.253
rhand -17.9664 -27.3309
rfingers 7.12502
rthumb 8.30278 -57.1477
lclavicle -1.39149e-014 2.94201e-014
lhumerus -36.4851 -21.5658 83.6868
lradius 29.9124
lwrist 48.4954
lhand -30.4089 7.58143
lfingers 7.12502
lthumb -3.71232 37.5288
rfemur -61.2925 20.9159 -1.85893
rtibia 38.7905
rfoot -13.2249 -9.33748
rtoes -19.2395
lfemur -27.3008 -15.1607 -23.146
ltibia 18.5679
lfoot -14.752 -10.2398
ltoes -23.2607
271
root 10.8299 15.5882 5.36876 22.6033 2.72041 3.28631
lowerback -13.1406 -0.999447 -9.83777
upperback -6.0264 -0.119204 -1.11153
thorax 0.977163 0.108429 4.35378
lowerneck -23.9668 -3.81684 -3.61626
upperneck 13.7678 -4.60747 3.24899
head 8.33373 -2.01935 1.04476
rclavicle 9.7156e-015 1.59028e-015
rhumerus -24.427 28.6739 -84.432
rradius 61.6823
rwrist -19.6938
rhand -17.2091 -26.9277
rfingers 7.12502
rthumb 9.03358 -56.7143
lclavicle 9.7156e-015 1.59028e-015
lhumerus -36.3028 -22.2355 83.7138
lradius 29.587
lwrist 48.2751
lhand -29.9872 7.60439
lfingers 7.12502
lthumb -3.30511 37.5585
rfemur -60.6514 20.7605 -1.51558
rtibia 38.8713
rfoot -12.2422 -8.7474
rtoes -19.8507
lfemur -26.4425 -15.2087 -23.4136
ltibia 18.1017
lfoot -14.9418 -10.6361
ltoes -23.1685
272
root 10.8036 15.5781 5.45581 22.3798 3.14741 3.53392
lowerback -13.3556 -1.07412 -9.90321
upperback -5.88228 -0.170377 -1.22376
thorax 1.2535 0.0655093 4.26498
lowerneck -23.8583 -3.90499 -3.72483
upperneck 13.9639 -4.70571 3.26889
head 8.38959 -2.06975 1.05526
rclavicle -1.55549e-014 1.78906e-014
rhumerus -25.2561 28.6779 -85.2183
rradius 58.8693
rwrist -18.6871
rhand -16.1527 -26.2512
rfingers 7.12502
rthumb 10.0529 -55.9911
lclavicle -1.55549e-014 1.78906e-014
lhumerus -36.1281 -22.9089 83.7503
lradius 29.2685
lwrist 47.9862
lhand -29.5275 7.57763
lfingers 7.12502
lthumb -2.86117 37.5382
rfemur -59.97 20.6453 -1.2252
rtibia 39.0478
rfoot -11.0301 -8.05524
rtoes -19.44
lfemur -25.5224 -15.2195 -23.6859
ltibia 17.5239
lfoot -15.0923 -11.0885
ltoes -23.0934
273
root 10.7768 15.5705 5.54339 22.1642 3.57677 3.78981
lowerback -13.5592 -1.14724 -9.97879
upperback -5.7615 -0.220399 -1.32522
thorax 1.4984 0.0257323 4.19272
lowerneck -23.7588 -3.98854 -3.85643
upperneck 14.1938 -4.78745 3.27032
head 8.45807 -2.11552 1.06522
rclavicle 1.10822e-014 3.18055e-015
rhumerus -26.0714 28.459 -85.949
rradius 56.0497
rwrist -17.2785
rhand -14.9269 -25.3613
rfingers 7.12502
rthumb 11.2353 -55.0405
lclavicle 1.10822e-014 3.18055e-015
lhumerus -35.9585 -23.5328 83.8013
lradius 28.9627
lwrist 47.6252
lhand -29.0741 7.53914
lfingers 7.12502
lthumb -2.42325 37.5051
rfemur -59.2834 20.5346 -0.969315
rtibia 39.3089
rfoot -9.7151 -7.29401
rtoes -18.1585
lfemur -24.5206 -15.1837 -23.9685
ltibia 16.7867
lfoot -15.1795 -11.6205
ltoes -22.9832
